# xmcd CD database file
#
# Track frame offsets:
#	150
#	13818
#	33388
#	46243
#	60119
#	69753
#	85408
#	99161
#	112568
#	127025
#	140852
#	158062
#	169439
#	183409
#	195950
#	209296
#	221626
#	235923
#	249693
#	261418
#
# Disc length: 3671 seconds
#
# Revision: 0
# Processed by: cddbd v1.5.2PL0 Copyright (c) Steve Scherf et al.
# Submitted via: CDex 1.51
#
DISCID=140e5514
DTITLE=Various Artist - The Roots Of The Black Crowes
DYEAR=2009
DGENRE=Blues
TTITLE0=Hobo Blues - John Lee Hooker
TTITLE1=Death Letter Blues - Son House
TTITLE2=Shake 'Em On Down - Furry Lewis
TTITLE3=Rats In My Kitchen - 'Sleepy' John Estes
TTITLE4=Wonderin' And Worryin' - Slim Harpo
TTITLE5=Blue Yodel (T For Texas) - Jimmie Rodgers
TTITLE6=Mean Old Frisco - Snooks Eaglin
TTITLE7=Devil Got My Woman - Skip James
TTITLE8=Jesus Make Up My Buying Bed - Blind Willie Johnson
TTITLE9=I Am In The Heavenly Way - Bukka White
TTITLE10=Blues "This Means Old World" - Snooks Eaglin
TTITLE11=John The Revelator - Son House
TTITLE12=I'm In The Mood - John Lee Hooker
TTITLE13=I Got Love If You Want It - Slim Harpo
TTITLE14=Custard Pie Blues - Brownie McGhee And Sonny Terry
TTITLE15=I Want Some Of Your Pie - Blind Boy Fuller
TTITLE16=Nobody's Fault But Mine - Blind Willie Johnson
TTITLE17=6,000 Miles From Nowhere - Snooks Eaglin
TTITLE18=Hellbound On My Trail - Robert Johnson
TTITLE19=The Poor Girl Story - Moonshine Kate And Fiddlin' John Carson
EXTD=YEAR: 2009
EXTT0=
EXTT1=
EXTT2=
EXTT3=
EXTT4=
EXTT5=
EXTT6=
EXTT7=
EXTT8=
EXTT9=
EXTT10=
EXTT11=
EXTT12=
EXTT13=
EXTT14=
EXTT15=
EXTT16=
EXTT17=
EXTT18=
EXTT19=
PLAYORDER=
